<?xml version="1.0" encoding="UTF-8" standalone="no"?>
<svg
   id="Layer_1"
   xml:space="preserve"
   viewBox="0 0 170 256"
   width="170"
   version="1.0"
   height="256"
   sodipodi:docname="dna_icon.svg"
   inkscape:export-filename="dna_icon.png"
   inkscape:export-xdpi="318.02176"
   inkscape:export-ydpi="318.02176"
   inkscape:version="1.1.1 (3bf5ae0d25, 2021-09-20)"
   xmlns:inkscape="http://www.inkscape.org/namespaces/inkscape"
   xmlns:sodipodi="http://sodipodi.sourceforge.net/DTD/sodipodi-0.dtd"
   xmlns="http://www.w3.org/2000/svg"
   xmlns:svg="http://www.w3.org/2000/svg"
   xmlns:rdf="http://www.w3.org/1999/02/22-rdf-syntax-ns#"
   xmlns:cc="http://creativecommons.org/ns#"
   xmlns:dc="http://purl.org/dc/elements/1.1/"><defs
     id="defs25" /><sodipodi:namedview
     id="namedview23"
     pagecolor="#ffffff"
     bordercolor="#666666"
     borderopacity="1.0"
     inkscape:pageshadow="2"
     inkscape:pageopacity="0.0"
     inkscape:pagecheckerboard="0"
     showgrid="false"
     inkscape:zoom="2.0484951"
     inkscape:cx="69.563263"
     inkscape:cy="188.18693"
     inkscape:window-width="3840"
     inkscape:window-height="1600"
     inkscape:window-x="0"
     inkscape:window-y="0"
     inkscape:window-maximized="1"
     inkscape:current-layer="Layer_1" /><metadata
     id="metadata68"><rdf:RDF><cc:Work
         rdf:about=""><dc:format>image/svg+xml</dc:format><dc:type
           rdf:resource="http://purl.org/dc/dcmitype/StillImage" /></cc:Work></rdf:RDF></metadata><path
     id="path141"
     d="m 27.238048,255.95004 c -0.33614,-10.28678 0.51714,-18.38433 1.05152,-28.64095 0.12066,-2.22801 -3.0813,-3.64153 -3.50363,-4.96885 -2.83134,-8.95946 -9.472284,2.82272 -10.446232,5.98589 -1.58762,5.14124 -2.52149,10.95907 -2.478395,16.35456 0.05301,6.42116 -3.7268563,4.93869 -1.600118,11.21333"
     stroke="#000000"
     stroke-width="1.43287"
     fill="#bf0000" /><path
     id="path133"
     d="M 13.236905,0.61633783 C 10.008657,14.182658 10.936923,37.203148 37.757538,65.306278 64.291148,93.108175 132.20028,109.31923 148.2618,133.62051 c 7.73124,11.68737 9.0241,-2.81841 9.30421,-7.88638 0.27581,-4.95162 2.56416,-15.20738 -16.67777,-25.65232 C 118.40988,87.880748 58.421608,54.457108 58.421608,54.457108 c 0,-0.002 -33.93733,-20.01764 -39.104427,-53.85154017 M 146.06826,240.26992 c 7.73125,11.68737 9.0241,-2.81842 9.30853,-7.88639 0.27149,-4.95162 2.55984,-15.19961 -16.68209,-25.64585 -22.47405,-12.2002 -82.466632,-45.62901 -82.466632,-45.62901 0,0 -42.879547,-25.28815 -39.582778,-67.073091 0,-8.61e-4 -24.5081384,32.416081 18.918718,77.924421 26.5336,27.80491 94.442742,44.00433 110.504252,68.30992 z"
     stroke="#000000"
     stroke-width="1.43287"
     fill="#8f0000" /><path
     id="path84"
     d="m 75.508778,114.86642 c 0,0 59.975342,2.55743 60.147722,2.56407 3.04773,0.12919 8.90128,-1.41783 8.95429,-5.2507 0.0928,-7.09258 -14.20154,-5.72776 -18.63731,-5.91651 -7.89759,-0.35115 -15.79518,-0.70228 -23.69278,-1.04682 -2.23279,-0.0961 -29.556292,0.2087 -30.013092,-1.32509 z"
     stroke="#000000"
     stroke-width="1.43287"
     fill="#7dff00" /><path
     id="path82"
     d="M 87.696048,18.168948 H 152.8428 c 0,0 1.64972,2.06382 3.50487,-3.50488 1.85511,-5.5687402 0.61949,-7.2184202 0.61949,-7.2184202 l -72.981412,-0.0994 z"
     stroke="#000000"
     stroke-width="1.43287"
     fill="#ffbf00" /><path
     id="path80"
     d="m 82.335028,38.786468 5.77387,-5.77086 44.939492,-8.24882 c 0,0 10.71989,5.36016 6.59914,9.48436 -4.121,4.12436 -5.97943,2.26921 -5.97943,2.26921 l -45.607462,6.85081 z"
     stroke="#000000"
     stroke-width="1.43287"
     fill="#ffbf00" /><path
     id="path78"
     d="m 84.407898,135.07713 65.090722,-0.22196 4.34959,4.34958 -4.51507,4.51507 -63.703062,1.44437 c 0,0 -4.53532,0.87125 -4.53532,-4.53532 0,-5.40627 3.31271,-5.55193 3.31271,-5.55193 z"
     stroke="#000000"
     stroke-width="1.43287"
     fill="#7dff00" /><path
     id="path76"
     d="m 83.412408,162.92944 38.957472,-7.41709 -2.51434,7.79805 -8.24537,4.94601 -26.428882,1.84852 c 0,-0.003 -4.87319,-5.38645 -1.76901,-7.17532 z"
     stroke="#000000"
     stroke-width="1.43287"
     fill="#7dff00" /><path
     id="path74"
     d="m 84.925038,79.516436 c 4.7271,2.093642 29.214982,5.66484 23.285112,14.393737 -4.09782,6.035887 -17.309122,-2.868836 -21.863832,-4.843019 -2.58725,-1.119694 -5.62175,-1.951213 -7.9868,-3.415409 3.51147,-0.662543 4.4293,-5.3468 2.75618,-8.106177 1.22903,0.742056 2.50443,1.391369 3.80965,1.971083 z"
     stroke="#000000"
     stroke-width="1.43287"
     fill="#7dff00" /><path
     id="path72"
     d="m 79.663138,222.06874 c 0,0 53.321472,2.55411 53.472302,2.56406 2.70982,0.1292 7.91397,-1.42114 7.96052,-5.25069 0.0828,-7.09258 -12.62814,-5.72776 -16.57047,-5.91997 -7.02276,-0.34783 -14.04251,-0.699 -21.06571,-1.0435 -1.98763,-0.0994 -26.279772,0.2087 -26.684002,-1.32508 z"
     stroke="#000000"
     stroke-width="1.43287"
     fill="#ffbf00" /><path
     id="path139"
     d="m 87.601248,247.41723 h 63.310892 c 0,0 1.60003,2.06382 3.4055,-3.50819 1.8021,-5.56228 0.59962,-7.21497 0.59962,-7.21497 l -70.917162,-0.1027 z"
     stroke="#000000"
     stroke-width="1.43287"
     fill="#ffbf00" /><path
     id="path100"
     d="m 19.252539,18.168948 h 70.507769 c 0,0 3.50487,0.82488 3.50487,-3.50488 0,-4.32976 -2.98808,-7.3179702 -2.98808,-7.3179702 H 15.541713 c -0.0034,0 -4.558161,5.8902302 3.710265,10.8228902 z"
     stroke="#000000"
     stroke-width="1.43287"
     fill="#7dff00" /><path
     id="path98"
     d="m 88.062358,43.367898 c -0.2087,0.64931 -6.87064,1.48079 -7.55628,1.62985 -5.57219,1.20584 -11.14394,2.41168 -16.71613,3.61417 -5.10805,1.10314 -10.16999,2.03731 -15.24184,3.03776 -3.43528,0.6725 -8.72244,3.15702 -11.21678,-0.68904 -1.26544,-1.95449 -1.39796,-5.36663 1.62654,-7.14904 0,0 44.00002,-9.78558 50.08072,-10.91209 l 1.12633,3.82288 c 0.003,0.003 -2.10359,6.6418 -2.10359,6.64525 z"
     stroke="#000000"
     stroke-width="1.43287"
     fill="#7dff00" /><path
     id="path96"
     d="m 17.972617,112.49103 58.143801,2.48455 c 0,0 2.85225,0.95076 3.03777,-3.37899 0.1822,-4.32631 -2.15329,-7.41407 -2.15329,-7.41407 l -61.625877,-2.63311 c 0.0034,0 -4.001761,5.72087 2.600483,10.94183 z"
     stroke="#000000"
     stroke-width="1.43287"
     fill="#ffbf00" /><path
     id="path94"
     d="m 28.733448,146.81621 c 0,0 -6.59915,1.64972 -7.83468,-3.71027 -1.238981,-5.36015 3.71027,-5.36015 3.71027,-5.36015 l 64.73303,-2.88871 5.15459,5.15805 -5.15459,5.15459 z"
     stroke="#000000"
     stroke-width="1.43287"
     fill="#ffbf00" /><path
     id="path92"
     d="m 55.947948,175.67695 c 0,0 -4.94903,2.0605 -4.94903,-4.94904 0,-7.00639 2.67999,-4.32975 2.67999,-4.32975 l 39.16303,-4.54524 2.89534,2.89534 -4.12436,4.12105 z"
     stroke="#000000"
     stroke-width="1.43287"
     fill="#ffbf00" /><path
     id="path90"
     d="m 51.151478,72.864328 c -1.71269,-3.19015 0.65922,-6.81117 5.71784,-6.55605 10.41176,0.52012 18.29944,10.05752 28.28758,12.419562 2.58725,0.612854 -4.58488,5.382999 -5.29724,5.562274 -4.01836,1.000451 -6.30739,-0.304772 -9.92824,-2.00422 -5.36102,-2.524506 -11.28658,-3.733322 -16.33732,-6.927096 -1.15495,-0.73524 -1.96082,-1.59986 -2.44349,-2.49429 z"
     stroke="#000000"
     stroke-width="1.43287"
     fill="#ffbf00" /><path
     id="path88"
     d="m 28.505038,219.6942 51.69679,2.48456 c 0,0 2.54088,0.94744 2.70318,-3.379 0.16232,-4.32975 -1.91476,-7.41406 -1.91476,-7.41406 l -54.79532,-2.63363 c 0.003,0 -3.55788,5.72087 2.31227,10.94183 z"
     stroke="#000000"
     stroke-width="1.43287"
     fill="#7dff00" /><path
     id="path135"
     d="m 21.088388,247.41723 h 68.51677 c 0,0 3.40546,0.82488 3.40546,-3.50819 0,-4.32976 -2.90525,-7.31797 -2.90525,-7.31797 H 17.481635 c 0,0.003 -4.425859,5.89023 3.607573,10.8259 z"
     stroke="#000000"
     stroke-width="1.43287"
     fill="#7dff00" /><path
     id="path149"
     d="M 22.139908,0.60771783 C 18.054497,8.6277078 15.391225,18.005178 17.739903,26.964638 c 4.020765,15.34958 21.987085,40.13569 21.987085,40.13569 0,0 -24.736547,-20.89333 -28.038057,-47.83117 V 0.60901783 m 143.161669,-0.009 c 0.9567,2.20214997 0.71968,4.53358997 -1.59452,6.84779997 -4.6715,4.6715002 -15.12204,9.5843302 -28.86074,16.2209602 -13.73869,6.63793 -78.342442,37.10826 -91.533822,50.30483 C 19.66582,87.166284 14.171205,93.218549 9.2204497,111.90585 c 0,0 0.7420955,11.18746 0,21.44408 0,0 3.8031343,26.52067 26.3474283,38.61314 -0.004,-0.004 -22.501199,-19.93145 -19.203137,-38.06583 0,0 -1.374731,-10.17043 19.517737,-31.06505 23.086,-23.086438 89.594552,-52.808652 98.683292,-55.808062 45.90482,-15.11084 21.71127,-21.16181 28.03762,-39.5763102 0,0 1.27561,-2.65035 -2.63742,-6.83486997 M 160.76323,255.94703 c -0.0603,-4.49912 -0.0905,-8.7052 -0.0862,-13.55339 0,-8.23546 1.31871,-14.76866 -2.11165,-21.37082 -0.724,-1.39197 -1.65485,-2.79256 -2.86151,-4.20176 -4.74046,-5.58512 -28.56338,-20.69423 -34.57083,-20.4529 22.49991,14.21705 32.03684,25.51225 32.81255,31.52832 0.74985,5.82644 -4.4,11.07973 -6.32635,16.3718 -1.24114,3.41743 -0.62919,8.11479 -0.75416,11.67013 m -131.737176,-0.004 c 0.06033,-1.91342 -1.38766,-2.37885 2.051323,-11.57963 1.133399,-3.02958 2.529678,-5.92988 4.240551,-8.64918 2.62449,-4.17159 6.14535,-7.96827 9.62312,-11.43741 11.84682,-11.81666 26.69305,-20.34085 42.2245,-26.32244 45.629012,-17.5957 68.719322,-33.54086 68.719322,-33.54086 0,0 16.49247,-10.44192 20.89247,-20.89247 0,0 -3.30108,-16.48815 0,-25.83546 0,0 -5.24036,-8.37423 -24.57278,-18.994996 0,0 15.22547,9.649836 15.22547,18.994996 0,9.34731 -15.66935,24.46935 -20.61235,24.46935 0,0 -85.491912,42.04781 -85.491912,42.05212 -5.58511,2.74947 -9.24819,7.72694 -13.87659,11.86406 -4.36553,3.9001 -8.8431,7.73125 -11.8382,12.84232 -3.775128,6.44271 -7.670918,12.95005 -10.100616,20.05211 -2.1961213,6.41685 -3.6186883,20.43566 -2.4870123,26.96887"
     stroke="#000000"
     stroke-width="1.43287"
     fill="#ff0000" /></svg>
